<svg width="80" height="80" viewBox="0 0 80 80" fill="none" xmlns="http://www.w3.org/2000/svg">
<rect x="38" width="4" height="13" fill="#D9D9D9"/>
<rect x="58.2679" y="4.35898" width="4" height="13" transform="rotate(30 58.2679 4.35898)" fill="#D9D9D9"/>
<rect x="73.641" y="18.2679" width="4" height="13" transform="rotate(60 73.641 18.2679)" fill="#D9D9D9"/>
<rect x="48.4209" y="0.845337" width="4" height="13" transform="rotate(15 48.4209 0.845337)" fill="#D9D9D9"/>
<rect x="66.8701" y="10.3015" width="4" height="13" transform="rotate(45 66.8701 10.3015)" fill="#D9D9D9"/>
<rect x="78.1194" y="27.7154" width="4" height="13" transform="rotate(75 78.1194 27.7154)" fill="#D9D9D9"/>
<rect x="38" y="67" width="4" height="13" fill="#D9D9D9"/>
<rect x="24.7679" y="62.3827" width="4" height="13" transform="rotate(30 24.7679 62.3827)" fill="#D9D9D9"/>
<rect x="15.6173" y="51.7679" width="4" height="13" transform="rotate(60 15.6173 51.7679)" fill="#D9D9D9"/>
<rect x="31.08" y="65.5624" width="4" height="13" transform="rotate(15 31.08 65.5624)" fill="#D9D9D9"/>
<rect x="19.4939" y="57.6777" width="4" height="13" transform="rotate(45 19.4939 57.6777)" fill="#D9D9D9"/>
<rect x="13.4023" y="45.0562" width="4" height="13" transform="rotate(75 13.4023 45.0562)" fill="#D9D9D9"/>
<rect x="80" y="38.5" width="4" height="13" transform="rotate(90 80 38.5)" fill="#D9D9D9"/>
<rect x="75.391" y="58.701" width="4" height="13" transform="rotate(120 75.391 58.701)" fill="#D9D9D9"/>
<rect x="61.299" y="73.891" width="4" height="13" transform="rotate(150 61.299 73.891)" fill="#D9D9D9"/>
<rect x="79.0253" y="48.9039" width="4" height="13" transform="rotate(105 79.0253 48.9039)" fill="#D9D9D9"/>
<rect x="69.3449" y="67.2236" width="4" height="13" transform="rotate(135 69.3449 67.2236)" fill="#D9D9D9"/>
<rect x="51.8016" y="78.2488" width="4" height="13" transform="rotate(165 51.8016 78.2488)" fill="#D9D9D9"/>
<rect x="13" y="38.5" width="4" height="13" transform="rotate(90 13 38.5)" fill="#D9D9D9"/>
<rect x="17.3673" y="25.201" width="4" height="13" transform="rotate(120 17.3673 25.201)" fill="#D9D9D9"/>
<rect x="27.799" y="15.8673" width="4" height="13" transform="rotate(150 27.799 15.8673)" fill="#D9D9D9"/>
<rect x="14.3082" y="31.563" width="4" height="13" transform="rotate(105 14.3082 31.563)" fill="#D9D9D9"/>
<rect x="21.9688" y="19.8475" width="4" height="13" transform="rotate(135 21.9688 19.8475)" fill="#D9D9D9"/>
<rect x="34.4608" y="13.5318" width="4" height="13" transform="rotate(165 34.4608 13.5318)" fill="#D9D9D9"/>
</svg>
