<svg width="118" height="118" viewBox="0 0 118 118" fill="none" xmlns="http://www.w3.org/2000/svg">
<rect x="57" width="4" height="9" fill="#D9D9D9"/>
<rect x="72.3385" y="1.49274" width="4" height="9" transform="rotate(15 72.3385 1.49274)" fill="#D9D9D9"/>
<rect x="86.7679" y="6.90448" width="4" height="9" transform="rotate(30 86.7679 6.90448)" fill="#D9D9D9"/>
<rect x="99.3051" y="15.8665" width="4" height="9" transform="rotate(45 99.3051 15.8665)" fill="#D9D9D9"/>
<rect x="109.096" y="27.7679" width="4" height="9" transform="rotate(60 109.096 27.7679)" fill="#D9D9D9"/>
<rect x="115.472" y="41.7978" width="4" height="9" transform="rotate(75 115.472 41.7978)" fill="#D9D9D9"/>
<rect x="57" y="109" width="4" height="9" fill="#D9D9D9"/>
<rect x="44.1272" y="106.779" width="4" height="9" transform="rotate(15 44.1272 106.779)" fill="#D9D9D9"/>
<rect x="32.2679" y="101.301" width="4" height="9" transform="rotate(30 32.2679 101.301)" fill="#D9D9D9"/>
<rect x="22.2304" y="92.9411" width="4" height="9" transform="rotate(45 22.2304 92.9411)" fill="#D9D9D9"/>
<rect x="14.6987" y="82.2679" width="4" height="9" transform="rotate(60 14.6987 82.2679)" fill="#D9D9D9"/>
<rect x="10.1861" y="70.0091" width="4" height="9" transform="rotate(75 10.1861 70.0091)" fill="#D9D9D9"/>
<rect x="9" y="57" width="4" height="9" transform="rotate(90 9 57)" fill="#D9D9D9"/>
<rect x="11.2213" y="44.1272" width="4" height="9" transform="rotate(105 11.2213 44.1272)" fill="#D9D9D9"/>
<rect x="16.6987" y="32.2679" width="4" height="9" transform="rotate(120 16.6987 32.2679)" fill="#D9D9D9"/>
<rect x="25.0589" y="22.2304" width="4" height="9" transform="rotate(135 25.0589 22.2304)" fill="#D9D9D9"/>
<rect x="35.7321" y="14.6987" width="4" height="9" transform="rotate(150 35.7321 14.6987)" fill="#D9D9D9"/>
<rect x="47.9909" y="10.1861" width="4" height="9" transform="rotate(165 47.9909 10.1861)" fill="#D9D9D9"/>
<rect x="118" y="57" width="4" height="9" transform="rotate(90 118 57)" fill="#D9D9D9"/>
<rect x="116.507" y="72.3385" width="4" height="9" transform="rotate(105 116.507 72.3385)" fill="#D9D9D9"/>
<rect x="111.096" y="86.7679" width="4" height="9" transform="rotate(120 111.096 86.7679)" fill="#D9D9D9"/>
<rect x="102.134" y="99.3051" width="4" height="9" transform="rotate(135 102.134 99.3051)" fill="#D9D9D9"/>
<rect x="90.2321" y="109.096" width="4" height="9" transform="rotate(150 90.2321 109.096)" fill="#D9D9D9"/>
<rect x="76.2022" y="115.472" width="4" height="9" transform="rotate(165 76.2022 115.472)" fill="#D9D9D9"/>
</svg>
